<?xml version="1.0" standalone="no"?>
<!DOCTYPE svg PUBLIC "-//W3C//DTD SVG 20010904//EN"
 "http://www.w3.org/TR/2001/REC-SVG-20010904/DTD/svg10.dtd">
<svg version="1.0" xmlns="http://www.w3.org/2000/svg"
 width="512.000000pt" height="512.000000pt" viewBox="0 0 512.000000 512.000000"
 preserveAspectRatio="xMidYMid meet">

<g transform="translate(0.000000,512.000000) scale(0.100000,-0.100000)"
fill="#000000" stroke="none">
<path d="M1942 3729 c-158 -19 -285 -82 -407 -204 -77 -77 -92 -100 -362 -570
-155 -270 -291 -511 -302 -536 -39 -88 -53 -176 -49 -299 8 -193 70 -335 207
-470 80 -79 151 -123 274 -168 l72 -27 1130 -3 c1266 -3 1219 -5 1370 68 150
73 251 174 325 325 78 159 91 356 36 520 -32 93 -562 1021 -636 1113 -90 112
-226 200 -370 238 -86 23 -253 23 -340 1 -98 -26 -217 -88 -286 -151 -55 -49
-63 -54 -75 -40 -18 22 -115 95 -161 121 -117 68 -281 99 -426 82z"/>
</g>
</svg>
